<svg width="42" height="41" viewBox="0 0 42 41" fill="none" xmlns="http://www.w3.org/2000/svg">
<path d="M5.87455 31.7993C5.87455 33.9073 7.58342 35.6162 9.69142 35.6162C11.7994 35.6162 13.5083 33.9073 13.5083 31.7993V28.5631C13.5083 24.6679 16.666 21.5101 20.5613 21.5101H21.7227C25.618 21.5101 28.7757 24.6678 28.7757 28.5631V31.7993C28.7757 33.9073 30.4846 35.6162 32.5926 35.6162C34.7006 35.6162 36.4095 33.9073 36.4095 31.7993V19.6938C36.4095 16.4139 34.801 13.3425 32.1051 11.4744L26.8377 7.82432C23.4116 5.45026 18.8724 5.45026 15.4464 7.82431L10.1789 11.4744C7.48298 13.3425 5.87455 16.4139 5.87455 19.6938V31.7993ZM9.69141 40.3182C4.77276 40.3182 0.7854 36.3308 0.7854 31.4122V17.3428C0.7854 14.0629 2.39383 10.9915 5.08975 9.12337L15.4464 1.94679C18.8724 -0.427263 23.4116 -0.427264 26.8377 1.94679L37.1943 9.12337C39.8902 10.9915 41.4986 14.0629 41.4986 17.3428V31.4122C41.4986 36.3308 37.5113 40.3182 32.5926 40.3182H30.7396C26.8443 40.3182 23.6866 37.1604 23.6866 33.2652V28.7567C23.6866 27.3514 22.5473 26.2121 21.142 26.2121C19.7367 26.2121 18.5974 27.3514 18.5974 28.7567V33.2651C18.5974 37.1604 15.4397 40.3182 11.5444 40.3182H9.69141Z" fill="#020202"/>
</svg>
