<svg width="46" height="35" viewBox="0 0 46 35" fill="none" xmlns="http://www.w3.org/2000/svg">
<path d="M27.5571 12.2898V8.36532C28.6322 8.02107 29.742 7.77148 30.8865 7.61657C32.031 7.46166 33.2101 7.3842 34.424 7.3842C35.2216 7.3842 36.028 7.42723 36.843 7.5133C37.658 7.59936 38.5163 7.72845 39.4181 7.90058V11.7218C38.3776 11.4808 37.4586 11.3087 36.6609 11.2054C35.8632 11.1021 35.1176 11.0505 34.424 11.0505C33.2448 11.0505 32.083 11.1538 30.9385 11.3603C29.794 11.5669 28.6669 11.8767 27.5571 12.2898ZM27.5571 24.4763V20.5518C28.5282 20.242 29.5686 19.9924 30.6784 19.8031C31.7882 19.6137 33.0367 19.5191 34.424 19.5191C35.3604 19.5191 36.2361 19.5707 37.0511 19.674C37.8661 19.7773 38.6551 19.915 39.4181 20.0871V23.9083C38.3776 23.6673 37.4586 23.4952 36.6609 23.3919C35.8632 23.2886 35.1176 23.237 34.424 23.237C33.2448 23.237 32.083 23.3403 30.9385 23.5468C29.794 23.7534 28.6669 24.0632 27.5571 24.4763ZM27.5571 18.383V14.4586C28.6669 14.1143 29.8027 13.8561 30.9645 13.684C32.1263 13.5119 33.2795 13.4258 34.424 13.4258C35.3604 13.4258 36.2361 13.4775 37.0511 13.5807C37.8661 13.684 38.6551 13.8217 39.4181 13.9938V17.815C38.5163 17.5741 37.658 17.4019 36.843 17.2987C36.028 17.1954 35.2216 17.1437 34.424 17.1437C33.3142 17.1437 32.1957 17.247 31.0686 17.4536C29.9414 17.6601 28.7709 17.9699 27.5571 18.383ZM11.9506 27.2647C13.5806 27.2647 15.1759 27.4713 16.7366 27.8844C18.2972 28.2975 19.8232 28.8139 21.3145 29.4335V5.98998C19.8579 5.23263 18.3492 4.66461 16.7886 4.28593C15.2279 3.90726 13.6153 3.71792 11.9506 3.71792C10.6674 3.71792 9.39283 3.8298 8.12697 4.05357C6.8611 4.27733 5.63859 4.6474 4.45943 5.16378V28.504C5.67327 28.0565 6.90446 27.7381 8.15298 27.5487C9.4015 27.3594 10.6674 27.2647 11.9506 27.2647ZM25.06 29.4335C26.5513 28.745 28.0773 28.2114 29.638 27.8328C31.1986 27.4541 32.7939 27.2647 34.424 27.2647C35.7072 27.2647 36.9817 27.3422 38.2476 27.4971C39.5134 27.652 40.7359 27.9877 41.9151 28.504V5.16378C40.7013 4.71625 39.4701 4.36339 38.2215 4.1052C36.973 3.84701 35.7072 3.71792 34.424 3.71792C32.7593 3.71792 31.1466 3.90726 29.5859 4.28593C28.0253 4.66461 26.5167 5.23263 25.06 5.98998V29.4335ZM23.1873 34.7006C21.4879 33.599 19.7018 32.7039 17.829 32.0154C15.9562 31.3269 13.9968 30.9827 11.9506 30.9827C10.6327 30.9827 9.3148 31.1118 7.99691 31.3699C6.67903 31.6281 5.41317 32.0154 4.19932 32.5318C3.36698 32.876 2.57798 32.8158 1.83233 32.3511C1.08669 31.8863 0.713867 31.2064 0.713867 30.3114V4.33757C0.713867 3.85562 0.843922 3.40809 1.10403 2.99499C1.36414 2.58189 1.71962 2.27206 2.17048 2.06551C3.73113 1.37701 5.32646 0.860629 6.95648 0.516378C8.58649 0.172126 10.2512 0 11.9506 0C13.9274 0 15.8609 0.23237 17.751 0.69711C19.6411 1.16185 21.4532 1.85896 23.1873 2.78844C24.956 1.89338 26.7768 1.20488 28.6495 0.722929C30.5223 0.240976 32.4471 0 34.424 0C36.1233 0 37.788 0.172126 39.4181 0.516378C41.0481 0.860629 42.6434 1.37701 44.2041 2.06551C44.6549 2.27206 45.0191 2.58189 45.2965 2.99499C45.574 3.40809 45.7127 3.85562 45.7127 4.33757V30.3114C45.7127 31.172 45.4439 31.8605 44.9063 32.3769C44.3688 32.8933 43.8052 33.0137 43.2156 32.7383C41.8284 32.1187 40.3978 31.6712 38.9238 31.3958C37.4499 31.1204 35.9499 30.9827 34.424 30.9827C32.3778 30.9827 30.4183 31.3269 28.5455 32.0154C26.6727 32.7039 24.8866 33.599 23.1873 34.7006Z" fill="#020202"/>
</svg>
