<svg width="49" height="45" viewBox="0 0 49 45" fill="none" xmlns="http://www.w3.org/2000/svg">
<path d="M22.8721 5.37799C23.495 3.60409 26.0032 3.60409 26.626 5.37799L30.1085 15.293C30.3913 16.0983 31.1514 16.6378 32.0049 16.6378H42.7471C44.6696 16.6382 45.4733 19.0945 43.9229 20.2315L35.1505 26.6651C34.4448 27.1826 34.1549 28.0973 34.4337 28.9268L37.6827 38.5889C38.2943 40.4076 36.2314 41.9531 34.6583 40.8546L25.9005 34.7383C25.209 34.2554 24.2892 34.2554 23.5977 34.7383L14.8399 40.8546C13.2668 41.953 11.2039 40.4076 11.8155 38.5889L15.0645 28.9268C15.3433 28.0973 15.0534 27.1826 14.3477 26.6651L5.57526 20.2315C4.0247 19.0944 4.82917 16.6378 6.75201 16.6378H17.4932C18.3468 16.6378 19.1079 16.0984 19.3907 15.293L22.8721 5.37799ZM26.668 18.9005C26.0334 17.1067 23.493 17.1166 22.8721 18.9151L22.6934 19.4327C22.4165 20.2348 21.6611 20.7735 20.8126 20.7735H19.7217C17.7753 20.7739 16.9652 23.2638 18.5391 24.4092L19.6055 25.1846C20.305 25.6938 20.5905 26.5994 20.3106 27.418C19.6857 29.2452 21.7642 30.8043 23.3438 29.6934L23.6046 29.5108C24.2912 29.0279 25.207 29.0279 25.8936 29.5108L26.1788 29.711C27.7653 30.8263 29.8514 29.2587 29.2383 27.419C28.9653 26.5996 29.2512 25.6949 29.9473 25.1837L31.0089 24.4044C32.5747 23.2549 31.7618 20.7736 29.8194 20.7735H28.7364C27.8936 20.7733 27.1426 20.2418 26.8614 19.4473L26.668 18.9005Z" fill="black" stroke="black" stroke-width="0.0208333"/>
<path d="M24.1588 16.2466L21.2046 18.9634L18.2504 20.0501L15.2961 22.7669L19.4321 26.5704V30.9173C21.0077 30.5551 24.277 30.9173 24.7497 30.9173C25.2224 30.9173 28.8856 30.1928 30.6581 30.374L29.4764 26.0271L34.2032 21.6802L30.0673 18.9634L24.1588 16.2466Z" fill="black"/>
</svg>
